<svg width="304" height="308" viewBox="0 0 304 308" fill="none" xmlns="http://www.w3.org/2000/svg">
<path d="M151.7 289.4C75.7 289.4 14 227.8 14 151.7C14 75.6 75.6 14 151.7 14C227.8 14 289.4 75.6 289.4 151.7" stroke="#111503" stroke-width="28" stroke-miterlimit="10"/>
<path d="M87.4 63.5004V281.9H118V63.5004H87.4ZM237.1 120.7C236.7 114.8 235.7 109.2 234.1 104.1C232.9 100.3 231.4 96.7004 229.5 93.3004C224.2 83.9004 216.9 76.6004 207.4 71.3004C197.9 66.1004 186.8 63.4004 174.1 63.4004H100.9V92.5004H175.4C184.3 92.5004 191.5 95.6004 196.9 101.8C197.5 102.5 198.1 103.2 198.7 104C202 108.6 204 114.1 204.7 120.6C204.9 122.5 205 124.4 205 126.4C205 128.4 204.9 130.3 204.7 132.1C204 138.6 202 144.1 198.7 148.7C198.1 149.5 197.5 150.2 196.9 151C191.5 157.2 184.3 160.3 175.4 160.3H100.9V189.4H174.1C182.1 189.4 189.6 188.4 196.3 186.2C200.2 185 203.9 183.4 207.3 181.5C216.8 176.3 224.1 168.9 229.4 159.4C231.3 156 232.9 152.4 234.1 148.6C235.8 143.4 236.8 137.9 237.2 132C237.3 130.1 237.4 128.2 237.4 126.3C237.4 124.4 237.4 122.4 237.2 120.5L237.1 120.7ZM196.2 186.4L190.7 175.9L160.2 182.8L163.6 189.6L207.9 277.5C217.8 273.1 227 267.5 235.5 261.1L196.2 186.5V186.4Z" fill="#111503"/>
<path d="M247.9 132.2H68V148.8H247.9V132.2Z" fill="#111503"/>
<path d="M247.7 104.1H67.8V120.7H247.7V104.1Z" fill="#111503"/>
</svg>
